<svg width="48" height="48" fill="#000000" version="1.1" viewBox="0 0 48 48" xmlns="http://www.w3.org/2000/svg">
 <g transform="matrix(1.1632 0 0 1.1632 -10.376 -7.8677)">
  <rect transform="rotate(-20.244)" x="2.0226" y="22.402" width="31.554" height="22.803" fill="#83a4d6" style="paint-order:markers stroke fill"/>
  <g transform="matrix(2.0085 0 0 2.0085 -4.4302 -7.2374)" fill="#024">
   <path d="m6.6925 13.422 4.1397 11.272 15.101-5.5334-4.1203-11.261zm17.777 5.0503-12.972 4.7294-2.7449-7.529 8.3185 2.8761 4.6538-7.6055zm-7.9224-1.3602-8.3437-2.9452 12.972-4.7294z"/>
   <path d="m10.748 23.376 3.8973-6.7216" fill-rule="evenodd" stroke="#024" stroke-width="1.1543"/>
   <path d="m24.984 18.089-7.3089-2.6361" stroke="#024" stroke-width="1.1543"/>
  </g>
 </g>
 <g fill-rule="evenodd" stroke="#3d1111" stroke-linejoin="round" stroke-width="1.2" style="paint-order:markers fill stroke">
  <path d="m47.288 43.429 0.02444-8.5294-10.114 0.60715-0.02124 7.4129z" points="47.312425,34.899207 37.19867,35.506354 37.177426,42.919227 47.287982,43.428623 " fill="#353564"/>
  <path d="m47.312 34.899-19.659-6.7686-13.851 2.7429 23.396 4.6329z" points="27.653032,28.130623 13.802173,30.873496 37.19867,35.506354 47.312425,34.899207 " fill="#afafde"/>
  <path d="m37.177 42.919-23.414 1.5712 0.039023-13.617 23.396 4.6329z" points="13.76315,44.490383 13.802173,30.873496 37.19867,35.506354 37.177426,42.919227 " fill="#e9e9ff"/>
  <path d="m47.288 43.429-19.686 2.6299-13.839-1.5681 23.414-1.5712z" points="27.601656,46.058488 13.76315,44.490383 37.177426,42.919227 47.287982,43.428623 " fill="#4d4d9f"/>
  <path d="m27.602 46.058 0.05138-17.928-13.851 2.7429-0.03902 13.617z" points="27.653032,28.130623 13.802173,30.873496 13.76315,44.490383 27.601656,46.058488 " fill="#d35f5f"/>
  <path d="m47.288 43.429-19.686 2.6299 0.05138-17.928 19.659 6.7686z" points="27.601656,46.058488 27.653032,28.130623 47.312425,34.899207 47.287982,43.428623 " fill="#a02c2c"/>
 </g>
</svg>
